<svg xmlns="http://www.w3.org/2000/svg" width="78" height="77" viewBox="0 0 78 77">
  <g id="Admin_0040" data-name="Admin#0040" transform="translate(-168 -217)">
    <g id="Ellipse_1" data-name="Ellipse 1" transform="translate(168 217)" fill="#fff" stroke="#707070" stroke-width="1">
      <ellipse cx="39" cy="38.5" rx="39" ry="38.5" stroke="none"/>
      <ellipse cx="39" cy="38.5" rx="38.5" ry="38" fill="none"/>
    </g>
    <g id="Symbols" transform="translate(189 221.492)">
      <g id="Head_Front_Caesar" data-name="Head/Front/Caesar">
        <g id="Head" transform="translate(2 2)">
          <path id="Path_4" data-name="Path 4" d="M7.641,31.19C3.38,26.3.5,20.3.977,13.588c1.389-19.353,28.939-15.1,34.3-5.328S40,42.8,33.071,44.55c-2.762.7-8.646-1.009-14.635-4.539l3.759,26H0Z" transform="translate(0 0)" fill="#b28b67" fill-rule="evenodd"/>
        </g>
        <path id="Combined-Shape" d="M68.33,53.867A4.2,4.2,0,0,0,65.816,53c-2.543,0-4.605,2.462-4.605,5,0,2.64,1.148,4.681,2.788,5.547-.876,1.859-1.756,3.208-2.788,3.453C57.23,66.563,52,55.82,52,47c0-9.654,7.076-18,20.263-18,11.853,0,16.347,5.306,16.579,10-5.079,1.516-13.955,2.1-26.71,2v1l11.053,1,1.842,6C72.1,48.763,70,50.945,68.33,53.867Z" transform="translate(-52 -29)" fill="#191847" fill-rule="evenodd"/>
      </g>
    </g>
  </g>
</svg>
