<svg xmlns="http://www.w3.org/2000/svg" width="78" height="77" viewBox="0 0 78 77">
  <g id="Jane_Smith" data-name="Jane Smith" transform="translate(-168 -217)">
    <g id="Ellipse_1" data-name="Ellipse 1" transform="translate(168 217)" fill="#fff" stroke="#707070" stroke-width="1">
      <ellipse cx="39" cy="38.5" rx="39" ry="38.5" stroke="none"/>
      <ellipse cx="39" cy="38.5" rx="38.5" ry="38" fill="none"/>
    </g>
    <g id="Symbols" transform="translate(176 227.393)">
      <g id="Head_Front_Wavy" data-name="Head/Front/Wavy" transform="translate(0 0)">
        <g id="Head" transform="translate(26.986 6.085)">
          <path id="Path_3" data-name="Path 3" d="M5.868,26.232C2.6,22.119.38,17.077.75,11.428,1.817-4.849,22.973-1.268,27.088,6.947S30.714,36,25.4,37.469c-2.121.585-6.639-.849-11.238-3.817l2.887,21.871H0Z" transform="translate(0 0)" fill="#b28b67" fill-rule="evenodd"/>
        </g>
        <path id="hair" d="M71.683,39.72a21.987,21.987,0,0,0-.914-3.255,15.606,15.606,0,0,0-1.794-3.573,26.4,26.4,0,0,0-4.743-5.511,14.836,14.836,0,0,0-11.476-3.952A11.365,11.365,0,0,0,47,25.938c-1.536,1.264-3.014,3.125-5,3.259-2.164.145-4.148-1.9-5.884-3.164a15.277,15.277,0,0,0-6.327-2.866,10.165,10.165,0,0,0-10.073,4.078c-2.81,3.583-4.853,8.838-3.008,13.585a6.128,6.128,0,0,0,1.418,2.243c.581.565,1.468,1.167,1.7,2.071.25.96-.5,2.2-.787,3.066a9.594,9.594,0,0,0-.635,3.894,10.277,10.277,0,0,0,2.873,5.789,9.344,9.344,0,0,0,4.954,2.724,13,13,0,0,0,3.727.308,10.921,10.921,0,0,0,1.765-.379,1.519,1.519,0,0,1,1.4.366,10.93,10.93,0,0,0,7.423,1.97A11.424,11.424,0,0,0,47.2,60.457c2.029-1.825,1.989-4.342,1.511-7.031.506.268,1.905.435,1.069-.635a4.46,4.46,0,0,0-1.382-.846,5.086,5.086,0,0,1-1.382-1.139c-1.552-1.912.015-5.8,1.966-6.443,2.9-.953,3.547,3.437,5.615,4.572,1.189.653,2.434-.239,3.325-1.151A14.4,14.4,0,0,0,60.63,43.3c.579-1.355,1.117-2.729,1.707-4.077.275-.63,1.229-2.409.75-3.121,2.076-.443,4.387.481,6.175,1.692a4.412,4.412,0,0,1,1.7,1.937c.084.189.268.753.5.776.43.043.269-.519.227-.787" transform="translate(-16 -23)" fill="#191847" fill-rule="evenodd"/>
      </g>
    </g>
  </g>
</svg>
