<svg xmlns="http://www.w3.org/2000/svg" width="29" height="25" viewBox="0 0 29 25">
  <g id="Logo_b" data-name="Logo b" transform="translate(-35 -54)">
    <g id="Rectangle_37" data-name="Rectangle 37" transform="translate(36 54)" fill="#fff" stroke="#000" stroke-width="1">
      <rect width="19" height="18" rx="5" stroke="none"/>
      <rect x="0.5" y="0.5" width="18" height="17" rx="4.5" fill="none"/>
    </g>
    <g id="Polygon_1" data-name="Polygon 1" transform="translate(55 70.5) rotate(-90)" fill="#fff">
      <path d="M 9.658780097961426 7.687556266784668 L 4.341220378875732 7.687556266784668 C 3.739800453186035 7.687556266784668 3.230500459671021 7.361446380615234 2.978850364685059 6.815206527709961 C 2.727200508117676 6.268966197967529 2.810290575027466 5.669946193695068 3.201110363006592 5.21281623840332 L 5.859880447387695 2.102976322174072 C 6.145270347595215 1.769166350364685 6.560830593109131 1.577726364135742 7.000000476837158 1.577726364135742 C 7.439170360565186 1.577726364135742 7.854720592498779 1.769166350364685 8.140110015869141 2.102976322174072 L 10.79889011383057 5.21281623840332 C 11.18972015380859 5.669936180114746 11.27281093597412 6.268966197967529 11.02116012573242 6.815206527709961 C 10.76950073242188 7.361446380615234 10.26020050048828 7.687556266784668 9.658780097961426 7.687556266784668 Z" stroke="none"/>
      <path d="M 7.000000476837158 2.07771635055542 C 6.702910423278809 2.07771635055542 6.432970523834229 2.202076435089111 6.239920616149902 2.427876472473145 L 3.581150054931641 5.537726402282715 C 3.195050239562988 5.989326477050781 3.370120048522949 6.469556331634521 3.43297004699707 6.605986595153809 C 3.495820045471191 6.742416381835938 3.7470703125 7.187556266784668 4.341220855712891 7.187556266784668 L 9.658781051635742 7.187556266784668 C 10.25293064117432 7.187556266784668 10.50418090820313 6.742416381835938 10.56702995300293 6.605986595153809 C 10.62988090515137 6.469556331634521 10.80495071411133 5.989326477050781 10.41884994506836 5.537726402282715 L 7.760070323944092 2.427876472473145 C 7.567020416259766 2.202076435089111 7.297090530395508 2.07771635055542 7.000000476837158 2.07771635055542 M 6.999999046325684 1.077718734741211 C 7.560490608215332 1.077718734741211 8.120980262756348 1.311161518096924 8.520151138305664 1.778046131134033 L 11.17893028259277 4.887896537780762 C 12.28854084014893 6.185746192932129 11.36630058288574 8.187556266784668 9.658781051635742 8.187556266784668 L 4.341220855712891 8.187556266784668 C 2.633700370788574 8.187556266784668 1.711460113525391 6.185746192932129 2.821070671081543 4.887896537780762 L 5.479840278625488 1.778046131134033 C 5.879015922546387 1.311161518096924 6.439507961273193 1.077718734741211 6.999999046325684 1.077718734741211 Z" stroke="none" fill="#000"/>
    </g>
    <path id="Icon_ionic-ios-musical-note" data-name="Icon ionic-ios-musical-note" d="M14.344,3.38c-.1.021-2.42.557-2.506.576a.2.2,0,0,0-.166.185h0v5.9a.71.71,0,0,1-.049.271.564.564,0,0,1-.33.294c-.068.025-.16.049-.269.076-.494.125-1.321.338-1.321,1.2a1.053,1.053,0,0,0,.718,1.089,1.369,1.369,0,0,0,.283.023,2.209,2.209,0,0,0,1.05-.305,1.293,1.293,0,0,0,.494-1.106V6.269a.179.179,0,0,1,.131-.18l1.9-.439a.364.364,0,0,0,.262-.363V3.556A.168.168,0,0,0,14.344,3.38Z" transform="translate(27.736 54.816)" stroke="#000" stroke-width="0.2"/>
    <g id="Icon_feather-book-open" data-name="Icon feather-book-open" transform="translate(40.5 56.582)">
      <path id="Path_1" data-name="Path 1" d="M3,4.5H5.25a1.5,1.5,0,0,1,1.5,1.495v5.232a1.123,1.123,0,0,0-1.125-1.121H3Z" fill="none" stroke="#000" stroke-linecap="round" stroke-linejoin="round" stroke-width="1"/>
      <path id="Path_2" data-name="Path 2" d="M21.75,4.5H19.5A1.5,1.5,0,0,0,18,5.995v5.232a1.123,1.123,0,0,1,1.125-1.121H21.75Z" transform="translate(-11.25)" fill="none" stroke="#000" stroke-linecap="round" stroke-linejoin="round" stroke-width="1"/>
    </g>
    <text id="Spotflix_Media" data-name="Spotflix Media" transform="translate(35 78)" fill="#fff" font-size="4" font-family="Montserrat-Regular, Montserrat"><tspan x="0" y="0">Spotflix Media</tspan></text>
  </g>
</svg>
